<svg width="19" height="19" viewBox="0 0 19 19" fill="none" xmlns="http://www.w3.org/2000/svg">
<path d="M14.25 7.25C15.9069 7.25 17.25 5.90685 17.25 4.25C17.25 2.59315 15.9069 1.25 14.25 1.25C12.5931 1.25 11.25 2.59315 11.25 4.25C11.25 5.90685 12.5931 7.25 14.25 7.25Z" stroke="#73FFA2" stroke-width="2.5" stroke-linecap="round" stroke-linejoin="round"/>
<path d="M4.25 17.25C5.90685 17.25 7.25 15.9069 7.25 14.25C7.25 12.5931 5.90685 11.25 4.25 11.25C2.59315 11.25 1.25 12.5931 1.25 14.25C1.25 15.9069 2.59315 17.25 4.25 17.25Z" stroke="#73FFA2" stroke-width="2.5" stroke-linecap="round" stroke-linejoin="round"/>
<path d="M11.25 11.25H17.25V16.25C17.25 16.5152 17.1446 16.7696 16.9571 16.9571C16.7696 17.1446 16.5152 17.25 16.25 17.25H12.25C11.9848 17.25 11.7304 17.1446 11.5429 16.9571C11.3554 16.7696 11.25 16.5152 11.25 16.25V11.25ZM1.25 1.25H7.25V6.25C7.25 6.51522 7.14464 6.76957 6.95711 6.95711C6.76957 7.14464 6.51522 7.25 6.25 7.25H2.25C1.98478 7.25 1.73043 7.14464 1.54289 6.95711C1.35536 6.76957 1.25 6.51522 1.25 6.25V1.25Z" stroke="#73FFA2" stroke-width="2.5" stroke-linecap="round" stroke-linejoin="round"/>
</svg>
