<svg width="24" height="24" viewBox="0 0 24 24" fill="none" xmlns="http://www.w3.org/2000/svg">
<path d="M11.6234 24C11.9234 24 12.2234 24 12.5234 24C12.5734 23.6 12.6209 23.2 12.6659 22.8C13.0709 19.2 13.2734 15.6 13.2734 12C13.2734 8.4 13.0709 4.8 12.6659 1.2C12.6209 0.799997 12.5734 0.4 12.5234 0C12.2234 0 11.9234 0 11.6234 0C11.5734 0.4 11.5259 0.799997 11.4809 1.2C11.0759 4.8 10.8734 8.4 10.8734 12C10.8734 15.6 11.0759 19.2 11.4809 22.8C11.5259 23.2 11.5734 23.6 11.6234 24Z" fill="#66DEDB"/>
<path d="M0 11.0869C0 11.3869 0 11.6869 0 11.9869C0.4 12.0369 0.8 12.0844 1.2 12.1294C4.8 12.5344 8.4 12.7369 12 12.7369C15.6 12.7369 19.2 12.5344 22.8 12.1294C23.2 12.0844 23.6 12.0369 24 11.9869C24 11.6869 24 11.3869 24 11.0869C23.6 11.0369 23.2 10.9894 22.8 10.9444C19.2 10.5394 15.6 10.3369 12 10.3369C8.4 10.3369 4.8 10.5394 1.2 10.9444C0.8 10.9894 0.4 11.0369 0 11.0869Z" fill="#66DEDB"/>
</svg>
