<svg width="145" height="129" viewBox="0 0 145 129" fill="none" xmlns="http://www.w3.org/2000/svg">
<path d="M140.535 38.0078V80.0098L91.8223 110.688L39.6543 79.9902V38.0078H140.535Z" stroke="#73FFA2" stroke-width="2"/>
<line x1="38.5652" y1="79.2051" x2="141.616" y2="79.6811" stroke="#73FFA2" stroke-width="2"/>
<line y1="-1" x2="41.5952" y2="-1" transform="matrix(0.503492 -0.864 0.863973 0.503538 93.7695 78.7803)" stroke="#73FFA2" stroke-width="2"/>
<line y1="-1" x2="41.5952" y2="-1" transform="matrix(0.503492 -0.864 0.863973 0.503538 46.1768 78.7803)" stroke="#73FFA2" stroke-width="2"/>
<line y1="-1" x2="41.9208" y2="-1" transform="matrix(-0.505259 -0.862967 0.862941 -0.505305 138.279 77.5859)" stroke="#73FFA2" stroke-width="2"/>
<line y1="-1" x2="41.9208" y2="-1" transform="matrix(-0.505259 -0.862967 0.862941 -0.505305 91.1562 77.5859)" stroke="#73FFA2" stroke-width="2"/>
<line x1="90.4922" y1="80.2051" x2="90.4922" y2="107.099" stroke="#73FFA2" stroke-width="2"/>
<path d="M63.7795 96.5804L69.9572 110.511L62.4886 121.262L48.766 119.931L42.5702 106.053L50.9498 95.2368L63.7795 96.5804Z" stroke="#73FFA2" stroke-width="2"/>
<path d="M139.157 109.166L130.184 121.482L117.138 120.389L111.43 107.839L120.349 95.5337L133.905 97.3832L139.157 109.166Z" stroke="#73FFA2" stroke-width="2"/>
<path d="M140.535 38.0078V80.0098L91.8223 110.688L39.6543 79.9902V38.0078H140.535Z" stroke="#73FFA2" stroke-width="2"/>
<line x1="38.5652" y1="79.2051" x2="141.616" y2="79.6811" stroke="#73FFA2" stroke-width="2"/>
<line y1="-1" x2="41.5952" y2="-1" transform="matrix(0.503492 -0.864 0.863973 0.503538 93.7695 78.7803)" stroke="#73FFA2" stroke-width="2"/>
<line y1="-1" x2="41.5952" y2="-1" transform="matrix(0.503492 -0.864 0.863973 0.503538 46.1768 78.7803)" stroke="#73FFA2" stroke-width="2"/>
<line y1="-1" x2="41.9208" y2="-1" transform="matrix(-0.505259 -0.862967 0.862941 -0.505305 138.279 77.5859)" stroke="#73FFA2" stroke-width="2"/>
<line y1="-1" x2="41.9208" y2="-1" transform="matrix(-0.505259 -0.862967 0.862941 -0.505305 91.1562 77.5859)" stroke="#73FFA2" stroke-width="2"/>
<line x1="90.4922" y1="80.2051" x2="90.4922" y2="107.099" stroke="#73FFA2" stroke-width="2"/>
<path d="M63.7795 96.5804L69.9572 110.511L62.4886 121.262L48.766 119.931L42.5702 106.053L50.9498 95.2368L63.7795 96.5804Z" stroke="#73FFA2" stroke-width="2"/>
<path d="M31.9294 48.1302L31.9787 57.8196L24.9363 62.1495L17.3219 57.9001L17.2484 48.2498L24.8464 44.1056L31.9294 48.1302Z" stroke="#73FFA2" stroke-width="2"/>
<path d="M31.9314 67.7521L31.9808 77.4611L24.9237 81.7998L17.2947 77.5417L17.2211 67.8728L24.8347 63.7197L31.9314 67.7521Z" stroke="#73FFA2" stroke-width="2"/>
<path d="M139.157 109.166L130.184 121.482L117.138 120.389L111.43 107.839L120.349 95.5337L133.905 97.3832L139.157 109.166Z" stroke="#73FFA2" stroke-width="2"/>
<path d="M43.4573 45.6079L3.77363 22.9812L43.4577 22.9809L43.4573 45.6079Z" stroke="#73FFA2" stroke-width="2"/>
</svg>
