<svg width="36" height="25" viewBox="0 0 36 25" fill="none" xmlns="http://www.w3.org/2000/svg">
<path d="M34.932 3.89931C34.7271 3.14563 34.3275 2.45853 33.7728 1.90643C33.2182 1.35432 32.5279 0.956474 31.7707 0.7525C28.9987 0 17.8424 0 17.8424 0C17.8424 0 6.68542 0.0227777 3.91342 0.775278C3.15624 0.979264 2.46595 1.37713 1.9113 1.92926C1.35665 2.4814 0.956988 3.16852 0.75212 3.92222C-0.0863453 8.82472 -0.411601 16.295 0.775143 21.0014C0.980032 21.7551 1.3797 22.4422 1.93435 22.9943C2.489 23.5464 3.17928 23.9442 3.93645 24.1482C6.70845 24.9007 17.8651 24.9007 17.8651 24.9007C17.8651 24.9007 29.0216 24.9007 31.7935 24.1482C32.5507 23.9442 33.241 23.5464 33.7956 22.9943C34.3503 22.4422 34.75 21.7551 34.9549 21.0014C35.8393 16.0919 36.1118 8.62625 34.932 3.89931Z" fill="#FF0000"/>
<path d="M14.291 17.7862L23.5461 12.4503L14.291 7.1145V17.7862Z" fill="white"/>
</svg>
