<svg width="29" height="29" viewBox="0 0 29 29" fill="none" xmlns="http://www.w3.org/2000/svg">
<path d="M9.66683 16.9166H12.0835M16.9168 16.9166H19.3335M9.66683 21.75H12.0835M16.9168 21.75H19.3335M15.7085 3.02079V3.62496C15.7085 7.04213 15.7085 8.75192 16.7706 9.81283C17.8315 10.875 19.5413 10.875 22.9585 10.875H23.5627M24.1668 12.8772V16.9166C24.1668 21.4732 24.1668 23.7522 22.7507 25.1671C21.3345 26.5821 19.0568 26.5833 14.5002 26.5833C9.94354 26.5833 7.66462 26.5833 6.24966 25.1671C4.8347 23.751 4.8335 21.4732 4.8335 16.9166V11.426C4.8335 7.50492 4.8335 5.54379 5.90408 4.21583C6.1203 3.94769 6.36456 3.70343 6.6327 3.48721C7.96308 2.41663 9.92179 2.41663 13.8428 2.41663C14.6947 2.41663 15.1212 2.41663 15.5115 2.55438C15.5921 2.58338 15.6714 2.6164 15.7496 2.65346C16.1242 2.83229 16.425 3.13317 17.028 3.73613L22.7507 9.45879C23.4503 10.1572 23.7983 10.5076 23.9832 10.9511C24.1668 11.3958 24.1668 11.8887 24.1668 12.8772Z" stroke="#AFFFCA" stroke-width="1.5" stroke-linecap="round" stroke-linejoin="round"/>
</svg>
