<svg width="33" height="33" viewBox="0 0 33 33" fill="none" xmlns="http://www.w3.org/2000/svg">
<path d="M22 13.75C22 10.7112 19.5387 8.25 16.5 8.25C13.4612 8.25 11 10.7112 11 13.75C11 16.7887 13.4612 19.25 16.5 19.25C19.5387 19.25 22 16.7887 22 13.75ZM13.75 13.75C13.75 12.2375 14.9875 11 16.5 11C18.0125 11 19.25 12.2375 19.25 13.75C19.25 15.2625 18.0125 16.5 16.5 16.5C14.9875 16.5 13.75 15.2625 13.75 13.75Z" fill="#AFFFCA"/>
<path d="M15.7026 29.9887C15.9364 30.1537 16.2251 30.25 16.5001 30.25C16.7751 30.25 17.0639 30.1675 17.2976 29.9887C17.7101 29.6862 27.5414 22.605 27.5001 13.7362C27.5001 7.67246 22.5639 2.73621 16.5001 2.73621C10.4364 2.73621 5.50013 7.67246 5.50013 13.7362C5.45888 22.5912 15.2901 29.6862 15.7026 29.9887ZM16.5001 5.49996C21.0514 5.49996 24.7501 9.19871 24.7501 13.75C24.7776 19.855 18.7139 25.3412 16.5001 27.1425C14.2864 25.3412 8.22263 19.8687 8.25013 13.75C8.25013 9.19871 11.9489 5.49996 16.5001 5.49996Z" fill="#AFFFCA"/>
</svg>
