<svg width="145" height="116" viewBox="0 0 145 116" fill="none" xmlns="http://www.w3.org/2000/svg">
<path d="M48.3018 48.8291V61.4893L38.0957 67.0225L27.1377 61.5039L27.1025 48.8779L38.0312 43.7422L48.3018 48.8291Z" fill="#73FFA2" stroke="#73FFA2" stroke-width="2"/>
<path d="M81.9375 48.8291V61.4893L71.7314 67.0225L60.7734 61.5039L60.7383 48.8779L71.667 43.7422L81.9375 48.8291Z" fill="#73FFA2" stroke="#73FFA2" stroke-width="2"/>
<path d="M115.582 48.8291V61.4893L105.376 67.0225L94.418 61.5039L94.3828 48.8779L105.312 43.7422L115.582 48.8291Z" fill="#73FFA2" stroke="#73FFA2" stroke-width="2"/>
<path d="M32.2578 1H109.983L143.823 53.5732L110.163 109.87L32.3379 110.048L23.3535 99.835L22.6943 99.085L21.9434 99.7441L6.3418 113.435L12.1377 75.8672L12.1865 75.5479L12.04 75.2598L1.13965 53.9199L32.2578 1Z" stroke="#73FFA2" stroke-width="2"/>
</svg>
