<svg width="25" height="25" viewBox="0 0 25 25" fill="none" xmlns="http://www.w3.org/2000/svg">
<g clip-path="url(#clip0_152_1277)">
<path d="M25 12.5C25 5.59648 19.4035 0 12.5 0C5.59648 0 0 5.59648 0 12.5C0 18.7391 4.57109 23.9104 10.5469 24.8481V16.1133H7.37305V12.5H10.5469V9.74609C10.5469 6.61328 12.4131 4.88281 15.2684 4.88281C16.6359 4.88281 18.0664 5.12695 18.0664 5.12695V8.20312H16.4902C14.9374 8.20312 14.4531 9.1667 14.4531 10.1553V12.5H17.9199L17.3657 16.1133H14.4531V24.8481C20.4289 23.9104 25 18.7392 25 12.5Z" fill="#1877F2"/>
<path d="M16.9927 16.2305L17.5469 12.6172H14.0801V10.2725C14.0801 9.28379 14.5644 8.32031 16.1172 8.32031H17.6934V5.24414C17.6934 5.24414 16.2629 5 14.8952 5C12.04 5 10.1738 6.73047 10.1738 9.86328V12.6172H7V16.2305H10.1738V24.9653C10.8199 25.0666 11.473 25.1173 12.127 25.1172C12.7809 25.1173 13.434 25.0666 14.0801 24.9653V16.2305H16.9927Z" fill="white"/>
</g>
<defs>
<clipPath id="clip0_152_1277">
<rect width="25" height="25" fill="white"/>
</clipPath>
</defs>
</svg>
