<svg width="25" height="25" viewBox="0 0 25 25" fill="none" xmlns="http://www.w3.org/2000/svg">
<path d="M19.1406 0H5.85938C2.62333 0 0 2.62333 0 5.85938V19.1406C0 22.3767 2.62333 25 5.85938 25H19.1406C22.3767 25 25 22.3767 25 19.1406V5.85938C25 2.62333 22.3767 0 19.1406 0Z" fill="url(#paint0_radial_152_1307)"/>
<path d="M11.7665 2.73438C9.11436 2.73438 8.78145 2.746 7.73984 2.79336C6.7002 2.84102 5.99053 3.00557 5.36963 3.24707C4.72725 3.49648 4.18242 3.83018 3.63965 4.37314C3.09639 4.91602 2.7627 5.46084 2.5125 6.10293C2.27031 6.72402 2.10557 7.43398 2.05879 8.47314C2.01221 9.51484 2 9.84785 2 12.5001C2 15.1523 2.01172 15.4842 2.05898 16.5258C2.10684 17.5654 2.27139 18.2751 2.5127 18.896C2.7623 19.5384 3.096 20.0832 3.63896 20.626C4.18164 21.1692 4.72646 21.5037 5.36836 21.7531C5.98975 21.9946 6.69951 22.1592 7.73896 22.2068C8.78066 22.2542 9.11328 22.2658 11.7653 22.2658C14.4178 22.2658 14.7496 22.2542 15.7912 22.2068C16.8309 22.1592 17.5413 21.9946 18.1627 21.7531C18.8048 21.5037 19.3488 21.1692 19.8914 20.626C20.4347 20.0832 20.7683 19.5384 21.0186 18.8963C21.2586 18.2751 21.4234 17.5652 21.4723 16.526C21.519 15.4844 21.5312 15.1523 21.5312 12.5001C21.5312 9.84785 21.519 9.51504 21.4723 8.47334C21.4234 7.43369 21.2586 6.72412 21.0186 6.10322C20.7683 5.46084 20.4347 4.91602 19.8914 4.37314C19.3482 3.82998 18.805 3.49629 18.1621 3.24717C17.5396 3.00557 16.8295 2.84092 15.7898 2.79336C14.7481 2.746 14.4165 2.73438 11.7635 2.73438H11.7665ZM10.8904 4.49424C11.1505 4.49385 11.4406 4.49424 11.7665 4.49424C14.374 4.49424 14.683 4.50361 15.7127 4.55039C16.6648 4.59395 17.1816 4.75303 17.5259 4.88672C17.9816 5.06367 18.3065 5.27529 18.6481 5.61719C18.9899 5.95898 19.2015 6.28447 19.3789 6.74023C19.5126 7.08398 19.6719 7.60078 19.7152 8.55293C19.762 9.58242 19.7722 9.8916 19.7722 12.4979C19.7722 15.1041 19.762 15.4134 19.7152 16.4428C19.6717 17.3949 19.5126 17.9117 19.3789 18.2556C19.202 18.7113 18.9899 19.0358 18.6481 19.3774C18.3063 19.7192 17.9818 19.9308 17.5259 20.1078C17.182 20.2421 16.6648 20.4008 15.7127 20.4443C14.6832 20.4911 14.374 20.5013 11.7665 20.5013C9.15889 20.5013 8.8498 20.4911 7.82041 20.4443C6.86826 20.4004 6.35146 20.2413 6.00693 20.1076C5.55127 19.9306 5.22568 19.719 4.88389 19.3772C4.54209 19.0354 4.33057 18.7107 4.15313 18.2548C4.01943 17.9109 3.86016 17.3941 3.8168 16.442C3.77002 15.4125 3.76064 15.1033 3.76064 12.4954C3.76064 9.8875 3.77002 9.57998 3.8168 8.55049C3.86035 7.59834 4.01943 7.08154 4.15313 6.7373C4.33018 6.28154 4.54209 5.95605 4.88398 5.61426C5.22588 5.27246 5.55127 5.06084 6.00703 4.8835C6.35127 4.74922 6.86826 4.59053 7.82041 4.54678C8.72129 4.50605 9.07041 4.49385 10.8904 4.4918V4.49424ZM16.9794 6.11572C16.3324 6.11572 15.8075 6.64014 15.8075 7.28721C15.8075 7.93418 16.3324 8.45908 16.9794 8.45908C17.6264 8.45908 18.1513 7.93418 18.1513 7.28721C18.1513 6.64023 17.6264 6.11533 16.9794 6.11533V6.11572ZM11.7665 7.48496C8.99697 7.48496 6.75146 9.73047 6.75146 12.5001C6.75146 15.2697 8.99697 17.5142 11.7665 17.5142C14.5361 17.5142 16.7809 15.2697 16.7809 12.5001C16.7809 9.73057 14.5359 7.48496 11.7663 7.48496H11.7665ZM11.7665 9.24482C13.5643 9.24482 15.0218 10.7021 15.0218 12.5001C15.0218 14.2979 13.5643 15.7554 11.7665 15.7554C9.96875 15.7554 8.51133 14.2979 8.51133 12.5001C8.51133 10.7021 9.96865 9.24482 11.7665 9.24482Z" fill="white"/>
<path d="M19.1406 0H5.85938C2.62333 0 0 2.62333 0 5.85938V19.1406C0 22.3767 2.62333 25 5.85938 25H19.1406C22.3767 25 25 22.3767 25 19.1406V5.85938C25 2.62333 22.3767 0 19.1406 0Z" fill="url(#paint1_radial_152_1307)"/>
<defs>
<radialGradient id="paint0_radial_152_1307" cx="0" cy="0" r="1" gradientUnits="userSpaceOnUse" gradientTransform="translate(6.64062 26.9255) rotate(-90) scale(24.7769 23.0444)">
<stop stop-color="#FFDD55"/>
<stop offset="0.1" stop-color="#FFDD55"/>
<stop offset="0.5" stop-color="#FF543E"/>
<stop offset="1" stop-color="#C837AB"/>
</radialGradient>
<radialGradient id="paint1_radial_152_1307" cx="0" cy="0" r="1" gradientUnits="userSpaceOnUse" gradientTransform="translate(-4.18758 1.80094) rotate(78.68) scale(11.0754 45.6531)">
<stop stop-color="#3771C8"/>
<stop offset="0.128" stop-color="#3771C8"/>
<stop offset="1" stop-color="#6600FF" stop-opacity="0"/>
</radialGradient>
</defs>
</svg>
