<svg width="32" height="32" viewBox="0 0 32 32" fill="none" xmlns="http://www.w3.org/2000/svg">
<path d="M29.3335 16C29.3335 17.7511 28.9886 19.485 28.3185 21.1027C27.6484 22.7205 26.6663 24.1904 25.4281 25.4286C24.1899 26.6668 22.72 27.6489 21.1022 28.319C19.4845 28.9891 17.7506 29.334 15.9995 29.334C14.2485 29.334 12.5146 28.9891 10.8968 28.319C9.27907 27.6489 7.80914 26.6668 6.57097 25.4286C5.33279 24.1904 4.35061 22.7205 3.68052 21.1027C3.01042 19.485 2.66553 17.7511 2.66553 16C2.66553 12.4636 4.07036 9.07206 6.57097 6.57145C9.07158 4.07084 12.4631 2.66602 15.9995 2.66602C19.5359 2.66602 22.9275 4.07084 25.4281 6.57145C27.9287 9.07206 29.3335 12.4636 29.3335 16Z" stroke="#AFFFCA" stroke-width="1.5"/>
<path d="M21.3337 16C21.3337 17.7506 21.1951 19.4853 20.9271 21.1026C20.6604 22.72 20.2671 24.1893 19.7711 25.428C19.2764 26.6666 18.6884 27.648 18.0417 28.3186C17.3937 28.988 16.7004 29.3333 16.0004 29.3333C15.3004 29.3333 14.6071 28.988 13.9604 28.3186C13.3124 27.648 12.7244 26.6653 12.2297 25.428C11.7337 24.1893 11.3404 22.7213 11.0724 21.1026C10.7989 19.4156 10.6634 17.709 10.6671 16C10.6671 14.2493 10.8044 12.5146 11.0724 10.8973C11.3404 9.27996 11.7337 7.81063 12.2297 6.57196C12.7244 5.33329 13.3124 4.35196 13.9591 3.68129C14.6071 3.01329 15.3004 2.66663 16.0004 2.66663C16.7004 2.66663 17.3937 3.01196 18.0404 3.68129C18.6884 4.35196 19.2764 5.33463 19.7711 6.57196C20.2671 7.81063 20.6604 9.27863 20.9271 10.8973C21.1964 12.5146 21.3337 14.2493 21.3337 16Z" stroke="#AFFFCA" stroke-width="1.5"/>
<path d="M2.66699 16H29.3337" stroke="#AFFFCA" stroke-width="1.5" stroke-linecap="round"/>
</svg>
