<svg width="573" height="517" viewBox="0 0 573 517" fill="none" xmlns="http://www.w3.org/2000/svg">
<path d="M126.913 258.744V118.797L242.609 16.8545L351.672 118.151V258.744" stroke="#73FFA2" stroke-width="25"/>
<path d="M365.72 460.52H116.377L17.2646 158.869H116.377H365.72L460.93 158.869L413.325 309.694" stroke="#73FFA2" stroke-width="25"/>
<path d="M461.969 468.505C463.844 468.505 465.719 468.505 467.594 468.505C467.906 466.612 468.203 464.719 468.485 462.826C471.016 445.789 472.281 428.752 472.281 411.716C472.281 394.679 471.016 377.642 468.485 360.605C468.203 358.713 467.906 356.82 467.594 354.927C465.719 354.927 463.844 354.927 461.969 354.927C461.656 356.82 461.36 358.713 461.078 360.605C458.547 377.642 457.281 394.679 457.281 411.716C457.281 428.752 458.547 445.789 461.078 462.826C461.36 464.719 461.656 466.612 461.969 468.505Z" fill="#73FFA2"/>
<path d="M409.465 404.892C409.465 406.767 409.465 408.642 409.465 410.517C411.358 410.829 413.251 411.126 415.144 411.407C432.181 413.938 449.218 415.204 466.254 415.204C483.291 415.204 500.328 413.938 517.365 411.407C519.258 411.126 521.151 410.829 523.044 410.517C523.044 408.642 523.044 406.767 523.044 404.892C521.151 404.579 519.258 404.282 517.365 404.001C500.328 401.47 483.291 400.204 466.254 400.204C449.218 400.204 432.181 401.47 415.144 404.001C413.251 404.282 411.358 404.579 409.465 404.892Z" fill="#73FFA2"/>
<path d="M469.566 318.494C522.271 318.494 564.997 361.22 564.997 413.925C564.996 466.629 522.271 509.354 469.566 509.354C416.861 509.354 374.135 466.629 374.135 413.925C374.135 361.22 416.861 318.494 469.566 318.494Z" stroke="#73FFA2" stroke-width="15"/>
</svg>
