<svg width="24" height="24" viewBox="0 0 24 24" fill="none" xmlns="http://www.w3.org/2000/svg">
<path d="M11.1002 2.43L3.34521 5.625V13.5C3.34521 17.72 12.0002 21.75 12.0002 21.75C12.0002 21.75 20.6552 17.72 20.6552 13.5V5.625L12.9002 2.43C12.615 2.31118 12.3092 2.25 12.0002 2.25C11.6913 2.25 11.3854 2.31118 11.1002 2.43Z" stroke="#73FFA2" stroke-linecap="round" stroke-linejoin="round"/>
<path d="M15.8248 9.63H8.17979C7.88984 9.63 7.65479 9.86505 7.65479 10.155V15.805C7.65479 16.095 7.88984 16.33 8.17979 16.33H15.8248C16.1147 16.33 16.3498 16.095 16.3498 15.805V10.155C16.3498 9.86505 16.1147 9.63 15.8248 9.63Z" stroke="#73FFA2" stroke-linecap="round" stroke-linejoin="round"/>
<path d="M9.125 9.63005V8.42505C9.125 7.66255 9.4279 6.93128 9.96707 6.39212C10.5062 5.85295 11.2375 5.55005 12 5.55005C12.7625 5.55005 13.4938 5.85295 14.0329 6.39212C14.5721 6.93128 14.875 7.66255 14.875 8.42505V9.63005" stroke="#73FFA2" stroke-linecap="round" stroke-linejoin="round"/>
<path d="M11.9998 14.095C12.6156 14.095 13.1148 13.5958 13.1148 12.98C13.1148 12.3642 12.6156 11.865 11.9998 11.865C11.384 11.865 10.8848 12.3642 10.8848 12.98C10.8848 13.5958 11.384 14.095 11.9998 14.095Z" stroke="#73FFA2" stroke-linecap="round" stroke-linejoin="round"/>
</svg>
