<svg width="60" height="60" viewBox="0 0 500 400" fill="none" xmlns="http://www.w3.org/2000/svg">
<path d="M157.5 173.987V206.639L131.206 220.896L102.608 206.492L102.521 174.279L131.037 160.879L157.5 173.987Z" fill="#73FFA2" stroke="#73FFA2" stroke-width="25"/>
<path d="M273.5 173.987V206.639L247.206 220.896L218.608 206.492L218.521 174.279L247.037 160.879L273.5 173.987Z" fill="#73FFA2" stroke="#73FFA2" stroke-width="25"/>
<path d="M389.5 173.987V206.639L363.206 220.896L334.608 206.492L334.521 174.279L363.037 160.879L389.5 173.987Z" fill="#73FFA2" stroke="#73FFA2" stroke-width="25"/>
<path d="M116.412 12.5H374.316L485.291 184.912L374.733 369.822L115.599 370.415L87.3262 338.279L79.0801 328.907L69.6963 337.141L34.6113 367.93L50.7988 262.991L51.415 258.998L49.5771 255.4L14.252 186.237L116.412 12.5Z" stroke="#73FFA2" stroke-width="25"/>
</svg>
