<svg width="22" height="25" viewBox="0 0 22 25" fill="none" xmlns="http://www.w3.org/2000/svg">
<g clip-path="url(#clip0_582_640)">
<path d="M16.3038 9.00187C17.9089 10.1523 19.8754 10.8292 21.9991 10.8292V6.73178C21.5972 6.73194 21.1963 6.68987 20.8031 6.60627V9.83152C18.6795 9.83152 16.7133 9.15471 15.1078 8.00437V16.3661C15.1078 20.5491 11.7256 23.9398 7.5539 23.9398C5.99731 23.9398 4.55047 23.468 3.34863 22.6588C4.72037 24.0651 6.63334 24.9374 8.74963 24.9374C12.9217 24.9374 16.304 21.5467 16.304 17.3635V9.00187H16.3038ZM17.7793 4.86808C16.959 3.96954 16.4203 2.80833 16.3038 1.52454V0.997559H15.1704C15.4557 2.6292 16.4289 4.02316 17.7793 4.86808ZM5.98726 19.4489C5.5289 18.8465 5.28115 18.1094 5.28231 17.3515C5.28231 15.4384 6.82927 13.8872 8.73786 13.8872C9.09349 13.887 9.44703 13.9418 9.78604 14.0495V9.86049C9.38987 9.80609 8.99009 9.7829 8.59048 9.79144V13.052C8.25129 12.9442 7.89758 12.8894 7.54178 12.8897C5.63328 12.8897 4.08641 14.4407 4.08641 16.3541C4.08641 17.707 4.85959 18.8783 5.98726 19.4489Z" fill="#FF004F"/>
<path d="M15.1084 8.00428C16.7139 9.15463 18.6799 9.83144 20.8036 9.83144V6.60618C19.6182 6.35299 18.5688 5.73196 17.7798 4.86808C16.4293 4.02308 15.4562 2.62911 15.1709 0.997559H12.1938V17.3633C12.187 19.2713 10.6427 20.8161 8.73825 20.8161C7.61608 20.8161 6.61903 20.2798 5.98765 19.4489C4.86015 18.8783 4.08688 17.707 4.08688 16.3542C4.08688 14.441 5.63376 12.8898 7.54226 12.8898C7.90792 12.8898 8.26035 12.9469 8.59095 13.052V9.79152C4.49242 9.87644 1.19629 13.234 1.19629 17.3634C1.19629 19.4248 2.01708 21.2935 3.34928 22.6589C4.55112 23.468 5.99787 23.94 7.55455 23.94C11.7264 23.94 15.1085 20.549 15.1085 16.3661L15.1084 8.00428Z" fill="black"/>
<path d="M20.8033 6.60603V5.73414C19.7344 5.73569 18.6865 5.43555 17.7795 4.86802C18.5824 5.74924 19.6395 6.35692 20.8033 6.60621M15.1705 0.997414C15.1434 0.841515 15.1225 0.684576 15.108 0.526983V0H10.9973V16.3659C10.9907 18.2737 9.44642 19.8185 7.54188 19.8185C7.00195 19.8193 6.46941 19.6927 5.98727 19.449C6.61865 20.2797 7.6157 20.8159 8.73787 20.8159C10.6422 20.8159 12.1867 19.2713 12.1934 17.3634V0.9975L15.1705 0.997414ZM8.59083 9.79138V8.86302C8.24732 8.81597 7.90103 8.79241 7.55434 8.7925C3.38207 8.7925 0 12.1834 0 16.3659C0 18.9883 1.3292 21.2993 3.34907 22.6587C2.01687 21.2934 1.19608 19.4246 1.19608 17.3633C1.19608 13.234 4.49213 9.87629 8.59083 9.79138Z" fill="#00F2EA"/>
</g>
<defs>
<clipPath id="clip0_582_640">
<rect width="22" height="25" fill="white"/>
</clipPath>
</defs>
</svg>
