<svg width="26" height="27" viewBox="0 0 26 27" fill="none" xmlns="http://www.w3.org/2000/svg">
<path d="M1.7425 24.5735V11.6039H1.4705C1.05494 11.6039 0.705972 11.4623 0.423583 11.1789C0.141194 10.8956 0 10.5476 0 10.1348V6.80992C0 6.39436 0.141194 6.04492 0.423583 5.76158C0.705972 5.47825 1.05542 5.33753 1.47192 5.33942H7.2845C7.00306 5.09008 6.8085 4.79258 6.70083 4.44692C6.59317 4.10219 6.53933 3.74567 6.53933 3.37733C6.53933 2.43289 6.86611 1.63389 7.51967 0.980333C8.17322 0.326778 8.97222 0 9.91667 0C10.4597 0 10.9584 0.1275 11.4127 0.3825C11.866 0.6375 12.2575 0.969472 12.5871 1.37842C12.9157 0.963806 13.3068 0.630417 13.7601 0.37825C14.2134 0.126083 14.7121 0 15.2561 0C16.2005 0 16.9995 0.326778 17.6531 0.980333C18.3066 1.63389 18.6339 2.43289 18.6348 3.37733C18.6348 3.74567 18.5791 4.10125 18.4677 4.44408C18.3562 4.78692 18.1631 5.08536 17.8882 5.33942H24.0295C24.4451 5.33942 24.794 5.48061 25.0764 5.763C25.3588 6.04539 25.5 6.39483 25.5 6.81133V10.1334C25.5 10.549 25.3588 10.8984 25.0764 11.1818C24.794 11.4651 24.4446 11.6063 24.0281 11.6053H23.7561V24.5735C23.7561 25.2063 23.5332 25.746 23.0874 26.1928C22.6416 26.6385 22.1019 26.8614 21.4682 26.8614H4.03183C3.39811 26.8614 2.85836 26.6385 2.41258 26.1928C1.96681 25.747 1.74392 25.2068 1.74392 24.5721M13.8663 1.98617C13.4857 2.36678 13.2954 2.8305 13.2954 3.37733C13.2954 3.92417 13.4857 4.38789 13.8663 4.7685C14.2469 5.14911 14.7102 5.33942 15.2561 5.33942C15.802 5.33942 16.2657 5.14911 16.6472 4.7685C17.0288 4.38789 17.2191 3.92417 17.2182 3.37733C17.2172 2.8305 17.0269 2.36678 16.6472 1.98617C16.2666 1.6065 15.8029 1.41667 15.2561 1.41667C14.7092 1.41667 14.246 1.6065 13.8663 1.98617ZM7.956 3.37733C7.956 3.92417 8.14583 4.38789 8.5255 4.7685C8.90611 5.14911 9.36983 5.33942 9.91667 5.33942C10.4635 5.33942 10.9272 5.14911 11.3078 4.7685C11.6884 4.38789 11.8787 3.92417 11.8787 3.37733C11.8787 2.8305 11.6884 2.36678 11.3078 1.98617C10.9272 1.60744 10.4635 1.41808 9.91667 1.41808C9.36983 1.41808 8.90611 1.60792 8.5255 1.98758C8.14489 2.36725 7.95458 2.83097 7.95458 3.37875M1.41667 6.75608V10.1873H12.0417V6.75608H1.41667ZM12.0417 25.4448V11.6039H3.15917V24.5735C3.15917 24.8276 3.24133 25.0363 3.40567 25.1997C3.56906 25.3631 3.77778 25.4448 4.03183 25.4448H12.0417ZM13.4583 25.4448H21.4682C21.7222 25.4448 21.9309 25.3631 22.0943 25.1997C22.2577 25.0363 22.3394 24.8276 22.3394 24.5735V11.6039H13.4583V25.4448ZM24.0833 10.1873V6.7575H13.4583V10.1873H24.0833Z" fill="#AFFFCA"/>
</svg>
