<svg width="713" height="634" viewBox="0 0 713 634" fill="none" xmlns="http://www.w3.org/2000/svg">
<path d="M153.711 231.346L153.939 276.222L121.704 296.042L86.7523 276.535L86.4141 231.958L121.303 212.932L153.711 231.346Z" stroke="#66DEDB" stroke-width="15"/>
<path d="M153.709 328.17L153.938 373.144L121.635 393.008L86.605 373.458L86.2664 328.785L121.231 309.718L153.709 328.17Z" stroke="#66DEDB" stroke-width="15"/>
<path d="M685.822 195.093V390.576L452.902 537.255L203.206 390.329V195.093H685.822Z" stroke="#66DEDB" stroke-width="25"/>
<line x1="190.26" y1="388.215" x2="698.715" y2="390.563" stroke="#66DEDB" stroke-width="15"/>
<line x1="456.167" y1="384.894" x2="559.5" y2="207.585" stroke="#66DEDB" stroke-width="15"/>
<line x1="221.321" y1="384.894" x2="324.653" y2="207.585" stroke="#66DEDB" stroke-width="15"/>
<line x1="675.756" y1="386.587" x2="571.249" y2="208.104" stroke="#66DEDB" stroke-width="15"/>
<line x1="443.258" y1="386.587" x2="338.752" y2="208.104" stroke="#66DEDB" stroke-width="15"/>
<line x1="449.011" y1="395.715" x2="449.011" y2="528.403" stroke="#66DEDB" stroke-width="15"/>
<path d="M311.215 481.228L339.352 544.673L305.822 592.94L244.006 586.941L215.873 523.931L253.636 475.198L311.215 481.228Z" stroke="#66DEDB" stroke-width="20"/>
<path d="M680.735 537.978L639.861 594.07L581.296 589.169L555.579 532.638L596.078 476.766L657.164 485.099L680.735 537.978Z" stroke="#66DEDB" stroke-width="20"/>
<path d="M685.822 195.093V390.576L452.902 537.255L203.206 390.329V195.093H685.822Z" stroke="#66DEDB" stroke-width="25"/>
<line x1="190.26" y1="388.215" x2="698.715" y2="390.563" stroke="#66DEDB" stroke-width="15"/>
<line x1="456.167" y1="384.894" x2="559.5" y2="207.585" stroke="#66DEDB" stroke-width="15"/>
<line x1="221.321" y1="384.894" x2="324.653" y2="207.585" stroke="#66DEDB" stroke-width="15"/>
<line x1="675.756" y1="386.587" x2="571.249" y2="208.104" stroke="#66DEDB" stroke-width="15"/>
<line x1="443.258" y1="386.587" x2="338.752" y2="208.104" stroke="#66DEDB" stroke-width="15"/>
<line x1="449.011" y1="395.715" x2="449.011" y2="528.403" stroke="#66DEDB" stroke-width="15"/>
<path d="M311.215 481.228L339.352 544.673L305.822 592.94L244.006 586.941L215.873 523.931L253.636 475.198L311.215 481.228Z" stroke="#66DEDB" stroke-width="20"/>
<path d="M680.735 537.978L639.861 594.07L581.296 589.169L555.579 532.638L596.078 476.766L657.164 485.099L680.735 537.978Z" stroke="#66DEDB" stroke-width="20"/>
<path d="M206.851 211.993L47.1641 120.952L206.852 120.951L206.851 211.993Z" stroke="#66DEDB" stroke-width="25"/>
</svg>
