<svg width="60" height="60" viewBox="0 0 500 550" fill="none" xmlns="http://www.w3.org/2000/svg">
<path d="M487.5 127.944V411.81L258.659 535.896L13.291 412.307L12.5215 128.881L257.234 13.8789L487.5 127.944Z" stroke="#73FFA2" stroke-width="25"/>
<path d="M147.664 335.428H197.488L219.269 375.663L197.432 419.088L147.959 419.223L127.64 375.917L147.664 335.428Z" stroke="#73FFA2" stroke-width="20"/>
<path d="M304.184 338.428H354.008L375.789 378.663L353.952 422.088L304.479 422.223L284.16 378.917L304.184 338.428Z" stroke="#73FFA2" stroke-width="20"/>
<path d="M53 256.491L256.166 280.449L446 256.35" stroke="#73FFA2" stroke-width="25"/>
<path d="M132 209.059L254.003 219L368 209" stroke="#73FFA2" stroke-width="35"/>
<path d="M134.016 264.707L145.5 133L212.5 145.5H354L365.361 264.434" stroke="#73FFA2" stroke-width="25"/>
<line x1="225" y1="376.5" x2="287" y2="376.496" stroke="#73FFA2" stroke-width="15"/>
<line x1="381.19" y1="376.688" x2="398.801" y2="376.688" stroke="#73FFA2" stroke-width="15"/>
<line x1="103" y1="376.5" x2="120.611" y2="376.5" stroke="#73FFA2" stroke-width="15"/>
</svg>
