<svg width="16" height="16" viewBox="0 0 16 16" fill="none" xmlns="http://www.w3.org/2000/svg">
<path fill-rule="evenodd" clip-rule="evenodd" d="M8 8C8.39556 8 8.78224 8.1173 9.11114 8.33706C9.44004 8.55682 9.69638 8.86918 9.84776 9.23463C9.99913 9.60009 10.0387 10.0022 9.96157 10.3902C9.8844 10.7781 9.69392 11.1345 9.41421 11.4142C9.13451 11.6939 8.77814 11.8844 8.39018 11.9616C8.00222 12.0387 7.60009 11.9991 7.23463 11.8478C6.86918 11.6964 6.55682 11.44 6.33706 11.1111C6.1173 10.7822 6 10.3956 6 10C6.00158 9.47005 6.2128 8.96227 6.58753 8.58753C6.96227 8.2128 7.47005 8.00158 8 8ZM8 2C7.47005 2.00158 6.96227 2.2128 6.58753 2.58753C6.2128 2.96227 6.00158 3.47005 6 4H10C9.99842 3.47005 9.7872 2.96227 9.41247 2.58753C9.03773 2.2128 8.52995 2.00158 8 2ZM13 16H3C2.47005 15.9984 1.96227 15.7872 1.58753 15.4125C1.2128 15.0377 1.00158 14.5299 1 14V6C1.00158 5.47005 1.2128 4.96227 1.58753 4.58753C1.96227 4.2128 2.47005 4.00158 3 4H4C4 2.93913 4.42143 1.92172 5.17157 1.17157C5.92172 0.421427 6.93913 0 8 0C9.06087 0 10.0783 0.421427 10.8284 1.17157C11.5786 1.92172 12 2.93913 12 4H13C13.5299 4.00158 14.0377 4.2128 14.4125 4.58753C14.7872 4.96227 14.9984 5.47005 15 6V14C14.9984 14.5299 14.7872 15.0377 14.4125 15.4125C14.0377 15.7872 13.5299 15.9984 13 16Z" fill="white"/>
</svg>
